<svg xmlns="http://www.w3.org/2000/svg" version="1.1" xmlns:xlink="http://www.w3.org/1999/xlink" xmlns:svgjs="http://svgjs.com/svgjs" width="330" height="317"><svg width="330" height="317" viewBox="0 0 330 317" fill="none" xmlns="http://www.w3.org/2000/svg">
<mask id="SvgjsMask1002" style="mask-type:alpha" maskUnits="userSpaceOnUse" x="0" y="0" width="330" height="317">
<path d="M224.772 109.893C221.632 52.5117 174.109 6.94973 115.943 6.94973C55.7478 6.94973 6.94973 55.7478 6.94973 115.943C6.94973 174.109 52.5117 221.632 109.893 224.772V296.902C109.893 304.164 115.78 310.05 123.041 310.05H211.788C219.05 310.05 224.936 304.164 224.936 296.902V224.937H310.085C321.883 224.937 327.71 210.6 319.257 202.369L284.129 168.165C283.707 167.754 283.707 167.076 284.129 166.665L319.257 132.461C327.71 124.23 321.883 109.893 310.085 109.893L224.772 109.893Z" fill="#D9D9D9" stroke="#FAFAFA" stroke-width="12.1005"></path>
<path d="M224.772 109.893C221.632 52.5117 174.109 6.94973 115.943 6.94973C55.7478 6.94973 6.94973 55.7478 6.94973 115.943C6.94973 174.109 52.5117 221.632 109.893 224.772V296.902C109.893 304.164 115.78 310.05 123.041 310.05H211.788C219.05 310.05 224.936 304.164 224.936 296.902V224.937H310.085C321.883 224.937 327.71 210.6 319.257 202.369L284.129 168.165C283.707 167.754 283.707 167.076 284.129 166.665L319.257 132.461C327.71 124.23 321.883 109.893 310.085 109.893L224.772 109.893Z" fill="#D9D9D9" stroke="#FAFAFA" stroke-width="12.1005"></path>
</mask>
<g mask="url(#mask0_315_258)">
<path fill-rule="evenodd" clip-rule="evenodd" d="M115.943 224.937C115.943 221.595 113.228 218.905 109.892 218.712C55.8548 215.58 13 170.766 13 115.943C13 59.0893 59.0893 13 115.943 13C170.766 13 215.58 55.8548 218.712 109.892C218.905 113.228 221.595 115.943 224.937 115.943H230.987L310.203 115.943C316.529 115.943 319.653 123.631 315.121 128.044L283.358 158.97C278.606 163.597 278.606 171.233 283.358 175.859L315.121 206.786C319.653 211.199 316.529 218.887 310.203 218.887H230.986H224.936C221.595 218.887 218.886 221.595 218.886 224.937V230.987V291.899C218.886 298.582 213.468 304 206.785 304H128.044C121.361 304 115.943 298.582 115.943 291.899V230.987V224.937ZM103.843 243.147C103.843 235.879 98.3184 229.879 91.2183 228.324C39.5642 217.011 0.899414 170.993 0.899414 115.943C0.899414 52.4063 52.4063 0.899414 115.943 0.899414C170.993 0.899414 217.011 39.5642 228.324 91.2183C229.879 98.3184 235.879 103.843 243.147 103.843L327.548 103.843C338.407 103.843 343.77 117.038 335.99 124.613L302.476 157.245C296.753 162.817 296.753 172.013 302.476 177.585L335.99 210.217C343.77 217.792 338.407 230.987 327.548 230.987H245.182C237.342 230.987 230.986 237.343 230.986 245.182V304C230.986 310.683 225.569 316.1 218.886 316.1H115.943C109.26 316.1 103.843 310.683 103.843 304V243.147Z" fill="#C6AFE0"></path>
<mask id="SvgjsMask1001" maskUnits="userSpaceOnUse" x="-7" y="-7" width="334" height="331" fill="black">
<rect fill="white" x="-7" y="-7" width="334" height="331"></rect>
<path d="M115.943 218.887C172.797 218.887 218.887 172.797 218.887 115.943C218.887 59.0893 172.797 13 115.943 13C59.0893 13 13 59.0893 13 115.943C13 172.797 59.0893 218.887 115.943 218.887Z"></path>
<path d="M115.943 289.805C115.943 297.645 122.299 304 130.138 304H204.691C212.531 304 218.886 297.645 218.886 289.805V218.887H115.943V289.805Z"></path>
<path d="M218.887 115.943C218.887 172.797 172.797 218.887 115.943 218.887H218.886H292.622C305.359 218.887 311.651 203.407 302.524 194.521L285.131 177.585C279.408 172.013 279.408 162.817 285.131 157.245L302.524 140.309C311.651 131.423 305.359 115.943 292.622 115.943L218.887 115.943Z"></path>
</mask>
<path d="M115.943 218.887C172.797 218.887 218.887 172.797 218.887 115.943C218.887 59.0893 172.797 13 115.943 13C59.0893 13 13 59.0893 13 115.943C13 172.797 59.0893 218.887 115.943 218.887Z" fill="#C6AFE0"></path>
<path d="M115.943 289.805C115.943 297.645 122.299 304 130.138 304H204.691C212.531 304 218.886 297.645 218.886 289.805V218.887H115.943V289.805Z" fill="#C6AFE0"></path>
<path d="M218.887 115.943C218.887 172.797 172.797 218.887 115.943 218.887H218.886H292.622C305.359 218.887 311.651 203.407 302.524 194.521L285.131 177.585C279.408 172.013 279.408 162.817 285.131 157.245L302.524 140.309C311.651 131.423 305.359 115.943 292.622 115.943L218.887 115.943Z" fill="#C6AFE0"></path>
<path d="M208.887 115.943C208.887 167.275 167.275 208.887 115.943 208.887V228.887C178.32 228.887 228.887 178.32 228.887 115.943H208.887ZM115.943 228.887H218.886V208.887H115.943V228.887ZM218.887 115.943H198.887V135.943H218.887V115.943ZM115.943 218.887H135.943V198.887H115.943V218.887ZM218.886 218.887V198.887H198.886V218.887H218.886ZM285.131 157.245L299.083 171.574L285.131 157.245ZM285.131 177.585L271.178 191.915L285.131 177.585ZM302.524 140.309L316.477 154.638L302.524 140.309ZM115.943 198.887C70.135 198.887 33 161.752 33 115.943H-7C-7 183.843 48.0436 238.887 115.943 238.887V198.887ZM33 115.943C33 70.135 70.135 33 115.943 33V-7C48.0436 -7 -7 48.0436 -7 115.943H33ZM115.943 33C161.752 33 198.887 70.135 198.887 115.943H238.887C238.887 48.0436 183.843 -7 115.943 -7V33ZM288.572 125.979L271.178 142.915L299.083 171.574L316.477 154.638L288.572 125.979ZM316.477 180.192L299.083 163.256L271.178 191.915L288.572 208.851L316.477 180.192ZM204.691 284H130.138V324H204.691V284ZM135.943 289.805V218.887H95.9433V289.805H135.943ZM198.886 218.887V289.805H238.886V218.887H198.886ZM218.887 135.943L292.622 135.943V95.9433L218.887 95.9433V135.943ZM292.622 198.887H218.886V238.887H292.622V198.887ZM204.691 324C223.576 324 238.886 308.69 238.886 289.805H198.886C198.886 286.599 201.485 284 204.691 284V324ZM271.178 142.915C257.392 156.339 257.392 178.491 271.178 191.915L299.083 163.256C301.424 165.535 301.424 169.295 299.083 171.574L271.178 142.915ZM288.572 208.851C284.84 205.217 287.413 198.887 292.622 198.887V238.887C323.306 238.887 338.461 201.598 316.477 180.192L288.572 208.851ZM130.138 284C133.344 284 135.943 286.599 135.943 289.805H95.9433C95.9433 308.69 111.253 324 130.138 324V284ZM316.477 154.638C338.461 133.232 323.306 95.9433 292.622 95.9433V135.943C287.413 135.943 284.84 129.613 288.572 125.979L316.477 154.638Z" fill="#C6AFE0" mask="url(#path-4-outside-1_315_258)"></path>
<mask id="SvgjsMask1000" style="mask-type:alpha" maskUnits="userSpaceOnUse" x="-512" y="-204" width="672" height="678">
<path d="M68.972 -93.3961C-59.0789 -232.589 -275.723 -241.621 -414.915 -113.57C-439.59 -90.8701 -460.175 -65.3861 -476.631 -38.0431C-491.758 -12.9074 -503.396 13.7994 -511.515 41.3586C-511.515 41.3586 -390.696 16.0274 -237.665 188.696C-84.6344 361.365 -113.634 473.86 -113.634 473.86C-85.4943 468.063 -57.9114 458.688 -31.6038 445.706C-2.98591 431.583 24.1231 413.191 48.7981 390.491C187.991 262.44 197.023 45.7966 68.972 -93.3961Z" fill="#D9D9D9"></path>
</mask>
<g mask="url(#mask1_315_258)">
<circle cx="-183.059" cy="138.461" r="336.424" transform="rotate(47.3874 -183.059 138.461)" stroke="#493C58" stroke-width="12.0659"></circle>
<circle cx="-178.858" cy="134.597" r="303.13" transform="rotate(47.3874 -178.858 134.597)" stroke="#493C58" stroke-width="12.0659"></circle>
<circle cx="-176.059" cy="132.02" r="269.835" transform="rotate(47.3874 -176.059 132.02)" stroke="#493C58" stroke-width="12.0659"></circle>
</g>
</g>
</svg><style>@media (prefers-color-scheme: light) { :root { filter: none; } }
</style></svg>